{"title":"Star.Trek.2009.BRRIP.720P.H264-ZEKTORM","uid":6102652,"size":2831009338,"categoryP":"video","categoryS":"hd___movies","magnet":"?xt=urn:btih:ae6b6e76956587b77b0f4d1bd41e6cc391bfe4d3&amp;dn=Star.Trek.2009.BRRIP.720P.H264-ZEKTORM&amp;tr=udp%3A%2F%2Ftracker.openbittorrent.com%3A80&amp;tr=udp%3A%2F%2Fopen.demonii.com%3A1337&amp;tr=udp%3A%2F%2Ftracker.coppersurfer.tk%3A6969&amp;tr=udp%3A%2F%2Fexodus.desync.com%3A6969","seeders":0,"leechers":1,"uploader":"blowley","files":4,"time":1295034977,"description":"Title                            : Star Trek\nYear                             : 2009\nGenre                            : Action | Adventure | Sci-Fi\niMDB URL                         : http://www.imdb.com/title/tt0796366/\n\nComplete name                    : Star.Trek.2009.BRRIP.720P.H264-ZEKTORM.mp4\nFormat                           : MPEG-4\nFormat profile                   : Base Media\nCodec ID                         : isom\nFile size                        : 2.64 GiB\nDuration                         : 2h 6mn\nOverall bit rate                 : 2976 Kbps\nSubtitles                        : English (Format: srt)\n\nVideo\nID                               : 1\nFormat                           : AVC\nFormat/Info                      : Advanced Video Codec\nFormat profile                   : &lt;a class=&quot;__cf_email__&quot; href=&quot;/cdn-cgi/l/email-protection&quot; data-cfemail=&quot;ca82a3ada28a86fee4fa&quot;&gt;[email&amp;#160;protected]&lt;/a&gt;&lt;script cf-hash='f9e31' type=&quot;text/javascript&quot;&gt;\n/* &lt;![CDATA[ */!function(){try{var t=&quot;currentScript&quot;in document?document.currentScript:function(){for(var t=document.getElementsByTagName(&quot;script&quot;),e=t.length;e--;)if(t[e].getAttribute(&quot;cf-hash&quot;))return t[e]}();if(t&amp;&amp;t.previousSibling){var e,r,n,i,c=t.previousSibling,a=c.getAttribute(&quot;data-cfemail&quot;);if(a){for(e=&quot;&quot;,r=parseInt(a.substr(0,2),16),n=2;a.length-n;n+=2)i=parseInt(a.substr(n,2),16)^r,e+=String.fromCharCode(i);e=document.createTextNode(e),c.parentNode.replaceChild(e,c)}}}catch(u){}}();/* ]]&gt; */&lt;/script&gt;\nFormat settings, CABAC           : Yes\nFormat settings, ReFrames        : 5 frames\nCodec ID                         : avc1\nCodec ID/Info                    : Advanced Video Coding\nDuration                         : 2h 6mn\nBit rate mode                    : Variable\nBit rate                         : 2527 Kbps\nWidth                            : 1280 pixels\nHeight                           : 528 pixels\nDisplay aspect ratio             : 2.424\nFrame rate mode                  : Constant\nFrame rate                       : 23.976 fps\nResolution                       : 24 bits\nColorimetry                      : 4:2:0\nScan type                        : Progressive\nBits/(Pixel*Frame)               : 0.156\nStream size                      : 2.24 GiB (85%)\nTitle                            : Video\nWriting library                  : x264\n\nAudio\nID                               : 2\nFormat                           : AAC\nFormat/Info                      : Advanced Audio Codec\nFormat version                   : Version 4\nFormat profile                   : LC\nFormat settings, SBR             : No\nCodec ID                         : 40\nDuration                         : 2h 6mn\nBit rate mode                    : Variable\nBit rate                         : 445 Kbps\nMaximum bit rate                 : 589 Kbps\nChannel(s)                       : 6 channels\nChannel positions                : Front: L C R, Rear: L R, LFE\nSampling rate                    : 48.0 KHz\nResolution                       : 16 bits\nStream size                      : 404 MiB (15%)\nLanguage                         : English\n\n\nScreenshots:\n &lt;a href=&quot;\nhttp://img203.imageshack.us/img203/6822/snapst1.png&quot; rel=&quot;nofollow&quot; target=&quot;_NEW&quot;&gt;\nhttp://img203.imageshack.us/img203/6822/snapst1.png&lt;/a&gt;\n &lt;a href=&quot;\nhttp://img257.imageshack.us/img257/3083/snapst2.png&quot; rel=&quot;nofollow&quot; target=&quot;_NEW&quot;&gt;\nhttp://img257.imageshack.us/img257/3083/snapst2.png&lt;/a&gt;\n &lt;a href=&quot;\nhttp://img37.imageshack.us/img37/8128/snapst3.png&quot; rel=&quot;nofollow&quot; target=&quot;_NEW&quot;&gt;\nhttp://img37.imageshack.us/img37/8128/snapst3.png&lt;/a&gt;\n &lt;a href=&quot;\nhttp://img811.imageshack.us/img811/6227/snapst4.png&quot; rel=&quot;nofollow&quot; target=&quot;_NEW&quot;&gt;\nhttp://img811.imageshack.us/img811/6227/snapst4.png&lt;/a&gt;\n","torrent":{"xt":"urn:btih:ae6b6e76956587b77b0f4d1bd41e6cc391bfe4d3","amp;dn":"Star.Trek.2009.BRRIP.720P.H264-ZEKTORM","amp;tr":["udp%3A%2F%2Ftracker.openbittorrent.com%3A80","udp%3A%2F%2Fopen.demonii.com%3A1337","udp%3A%2F%2Ftracker.coppersurfer.tk%3A6969","udp%3A%2F%2Fexodus.desync.com%3A6969"],"infoHash":"ae6b6e76956587b77b0f4d1bd41e6cc391bfe4d3","infoHashBuffer":{"type":"Buffer","data":[174,107,110,118,149,101,135,183,123,15,77,27,212,30,108,195,145,191,228,211]},"announce":[],"urlList":[]}}